<?xml version="1.0" encoding="UTF-8" standalone="no"?>
<svg xmlns="http://www.w3.org/2000/svg" xmlns:xlink="http://www.w3.org/1999/xlink" width="400" height="400" version="1.0">
  <defs>
    <radialGradient xlink:href="#a" id="c" cx="205.30925" cy="175.82935" r="17.154898" fx="205.30925" fy="175.82935" gradientTransform="matrix(1.63258 -.1062 .10015 1.53958 -147.955 -72.80683)" gradientUnits="userSpaceOnUse"/>
    <radialGradient xlink:href="#b" id="e" cx="187.16451" cy="26.252256" r="173" fx="187.16451" fy="26.252256" gradientTransform="matrix(2.8481 0 0 1.8838 -367.7705 -15.45397)" gradientUnits="userSpaceOnUse"/>
    <linearGradient id="b">
      <stop offset="0" stop-color="#fff"/>
      <stop offset=".43697613" stop-color="#fff" stop-opacity=".74226803"/>
      <stop offset=".81568879" stop-color="#1f1f1f" stop-opacity=".64948452"/>
      <stop offset="1" stop-opacity=".86597937"/>
    </linearGradient>
    <linearGradient id="a">
      <stop offset="0" stop-color="#747474"/>
      <stop offset=".5" stop-color="#888"/>
      <stop offset="1" stop-color="#fff"/>
    </linearGradient>
  </defs>
  <path fill="#fff" d="M377.995859 202.500276a174.495758 174.495758 0 1 1-348.991516 0 174.495758 174.495758 0 1 1 348.991516 0z"/>
  <path id="d" fill="url(#c)" fill-opacity="1" fill-rule="evenodd" stroke="none" stroke-dasharray="none" stroke-linecap="round" stroke-linejoin="round" stroke-miterlimit="4" stroke-opacity="1" stroke-width="6.25" d="M218.86638 192.35753a14.029897 14.029897 0 1 1-28.05979 0 14.029897 14.029897 0 1 1 28.05979 0z" opacity="1" transform="translate(-32.55056 -30.54336) scale(1.16085)"/>
  <use xlink:href="#d" width="400" height="400" transform="translate(37.50383 -9.307878)"/>
  <use xlink:href="#d" width="400" height="400" transform="matrix(.754 -.2025 .25938 .96578 73.11082 32.28441)"/>
  <use xlink:href="#d" width="400" height="400" transform="matrix(.70163 -.16071 .20696 .9035 126.3043 29.75838)"/>
  <use xlink:href="#d" width="400" height="400" transform="matrix(.52192 -.05567 .09443 .88534 211.067 7.535271)"/>
  <use xlink:href="#d" width="400" height="400" transform="matrix(.40972 -.10448 .21943 .86048 226.3591 11.55282)"/>
  <use xlink:href="#d" width="400" height="400" transform="matrix(.18987 -.04241 .2054 .5639 280.3703 37.76572)"/>
  <use xlink:href="#d" width="400" height="400" transform="matrix(.88566 .12685 -.16595 .98819 14.48631 -15.90062)"/>
  <use xlink:href="#d" width="400" height="400" transform="matrix(.81281 .10128 -.12365 .99233 -12.80808 -14.25672)"/>
  <use xlink:href="#d" width="400" height="400" transform="matrix(.78447 .11774 -.14203 .94633 -34.17315 -16.48464)"/>
  <use xlink:href="#d" width="400" height="400" transform="matrix(.65148 .10403 -.14274 .89392 -33.04849 -12.8279)"/>
  <use xlink:href="#d" width="400" height="400" transform="matrix(.40218 .05259 -.18458 .88013 7.449932 -7.047483)"/>
  <use xlink:href="#d" width="400" height="400" transform="matrix(.26667 .02433 -.12434 .79385 10.74317 10.46957)"/>
  <use xlink:href="#d" width="400" height="400" transform="matrix(.9387 -.13464 .14198 .98987 9.062478 57.08491)"/>
  <use xlink:href="#d" width="400" height="400" transform="matrix(.91386 0 0 .93109 1.124337 46.95545)"/>
  <use xlink:href="#d" width="400" height="400" transform="matrix(.8794 0 0 1 -35.01591 38.16132)"/>
  <use xlink:href="#d" width="400" height="400" transform="matrix(.73423 -.10407 .1355 .95599 -66.13424 60.14597)"/>
  <use xlink:href="#d" width="400" height="400" transform="matrix(.56928 0 0 .93109 -36.46806 33.48675)"/>
  <use xlink:href="#d" width="400" height="400" transform="matrix(.4795 .17643 -.14829 .98894 -11.9077 -21.73155)"/>
  <use xlink:href="#d" width="400" height="400" transform="matrix(.27558 .02113 -.05931 .77375 -4.883947 43.48296)"/>
  <use xlink:href="#d" width="400" height="400" transform="matrix(.85847 -.07984 .0926 .9957 71.80792 35.73267)"/>
  <use xlink:href="#d" width="400" height="400" transform="matrix(.75528 -.17824 .22969 .97327 102.1974 53.51942)"/>
  <use xlink:href="#d" width="400" height="400" transform="matrix(.56958 -.23397 .27836 .83475 160.6686 84.36053)"/>
  <use xlink:href="#d" width="400" height="400" transform="matrix(.50213 -.12557 .2008 .80298 212.2853 61.71606)"/>
  <use xlink:href="#d" width="400" height="400" transform="matrix(.30432 -.06335 .18839 .73585 268.0882 42.59368)"/>
  <use xlink:href="#d" width="400" height="400" transform="matrix(.85926 -.07074 .0722 .87714 59.86229 96.28287)"/>
  <use xlink:href="#d" width="400" height="400" transform="translate(30.08283 87.50342) scale(.8794)"/>
  <use xlink:href="#d" width="400" height="400" transform="matrix(.78881 .08384 -.08384 .78881 21.90344 91.40535)"/>
  <use xlink:href="#d" width="400" height="400" transform="rotate(12.515 -372.23441344 75.20451502) scale(.7588)"/>
  <use xlink:href="#d" width="400" height="400" transform="matrix(.6382 .10337 0 .82771 -35.45938 70.35808)"/>
  <use xlink:href="#d" width="400" height="400" transform="matrix(.53825 .13438 0 .75662 -42.72575 71.24318)"/>
  <use xlink:href="#d" width="400" height="400" transform="matrix(.32808 .17229 0 .68988 -21.19809 63.70112)"/>
  <use xlink:href="#d" width="400" height="400" transform="matrix(.81018 -.1694 .1694 .81018 89.36111 122.4253)"/>
  <use xlink:href="#d" width="400" height="400" transform="matrix(.55791 -.34216 .18378 .78937 171.4748 150.9484)"/>
  <use xlink:href="#d" width="400" height="400" transform="matrix(.38317 -.2627 .1626 .72352 238.076 136.1078)"/>
  <use xlink:href="#d" width="400" height="400" transform="matrix(.23826 -.16335 .12518 .59066 292.9885 133.1912)"/>
  <use xlink:href="#d" width="400" height="400" transform="matrix(.73905 0 0 .80045 37.80589 137.2144)"/>
  <use xlink:href="#d" width="400" height="400" transform="matrix(.73483 .07883 -.0772 .71957 17.05131 136.3748)"/>
  <use xlink:href="#d" width="400" height="400" transform="matrix(.64292 .07207 -.08233 .73445 1.403011 129.6457)"/>
  <use xlink:href="#d" width="400" height="400" transform="matrix(.47277 .26323 -.10105 .62346 7.18239 103.5555)"/>
  <use xlink:href="#d" width="400" height="400" transform="matrix(.28081 .21662 .11191 .65277 -18.34561 99.9726)"/>
  <use xlink:href="#d" width="400" height="400" transform="matrix(.77058 -.15029 .15029 .77058 42.61594 170.5657)"/>
  <use xlink:href="#d" width="400" height="400" transform="matrix(.70515 -.26308 .08478 .72597 110.6717 195.8123)"/>
  <use xlink:href="#d" width="400" height="400" transform="matrix(.64084 -.19945 .06865 .79031 163.7293 160.3524)"/>
  <use xlink:href="#d" width="400" height="400" transform="matrix(.54093 -.2317 .02552 .71156 222.0478 168.9004)"/>
  <use xlink:href="#d" width="400" height="400" transform="matrix(.40135 -.1535 0 .58555 278.6135 168.1409)"/>
  <use xlink:href="#d" width="400" height="400" transform="translate(51.5052 171.3819) scale(.76975)"/>
  <use xlink:href="#d" width="400" height="400" transform="matrix(.7125 .07102 -.07102 .7125 40.32014 167.2179)"/>
  <use xlink:href="#d" width="400" height="400" transform="matrix(.7501 -.0806 .0806 .7501 79.00219 188.4609)"/>
  <use xlink:href="#d" width="400" height="400" transform="matrix(.69148 .148 -.01593 .66195 .138365 158.5364)"/>
  <use xlink:href="#d" width="400" height="400" transform="matrix(.74019 -.14792 .06777 .7238 117.2596 198.5953)"/>
  <use xlink:href="#d" width="400" height="400" transform="matrix(.5779 .11697 -.02274 .55815 -7.736043 178.1628)"/>
  <use xlink:href="#d" width="400" height="400" transform="matrix(.62917 -.15568 .04509 .6005 177.917 212.4558)"/>
  <use xlink:href="#d" width="400" height="400" transform="matrix(.38993 .1348 .16325 .65217 -32.63552 150.3827)"/>
  <use xlink:href="#d" width="400" height="400" transform="matrix(.40918 -.22993 .08303 .57182 244.7512 217.4732)"/>
  <use xlink:href="#d" width="400" height="400" transform="matrix(.75325 .04159 -.02805 .50802 41.29754 232.7952)"/>
  <use xlink:href="#d" width="400" height="400" transform="matrix(.753 -.05796 .03378 .43886 69.93262 267.3082)"/>
  <use xlink:href="#d" width="400" height="400" transform="matrix(.62637 .14258 -.11558 .46587 51.95895 218.6952)"/>
  <use xlink:href="#d" width="400" height="400" transform="matrix(.69037 -.26504 .17557 .45731 88.02265 300.8679)"/>
  <use xlink:href="#d" width="400" height="400" transform="matrix(.65643 .17822 -.04745 .37661 -.841647 223.0835)"/>
  <use xlink:href="#d" width="400" height="400" transform="matrix(.65356 -.38266 .22483 .384 121.2889 327.7205)"/>
  <use xlink:href="#d" width="400" height="400" transform="matrix(.51909 .402 -.22847 .1884 36.11361 208.936)"/>
  <use xlink:href="#d" width="400" height="400" transform="matrix(.47843 -.35007 .19808 .27071 190.6092 329.3323)"/>
  <use xlink:href="#d" width="400" height="400" transform="matrix(.64413 -.06035 .03243 .3461 73.2866 302.8011)"/>
  <use xlink:href="#d" width="400" height="400" transform="matrix(.65832 .07252 -.04142 .37605 53.35976 271.2613)"/>
  <use xlink:href="#d" width="400" height="400" transform="matrix(.69619 -.15104 .06874 .31685 85.22745 325.9279)"/>
  <use xlink:href="#d" width="400" height="400" transform="matrix(.58042 .20708 -.11013 .30868 52.34032 250.5578)"/>
  <use xlink:href="#d" width="400" height="400" transform="matrix(.58636 -.22388 .10188 .26684 130.996 342.7562)"/>
  <use xlink:href="#d" width="400" height="400" transform="matrix(.5597 -.32314 .09745 .16879 168.5805 369.914)"/>
  <use xlink:href="#d" width="400" height="400" transform="matrix(.5431 .25754 -.0915 .19296 32.4083 256.9541)"/>
  <use xlink:href="#d" width="400" height="400" transform="matrix(.7883 .13896 -.15628 .88655 18.07252 -33.77708)"/>
  <use xlink:href="#d" width="400" height="400" transform="matrix(.76975 0 0 .9079 25.75519 -14.74724)"/>
  <use xlink:href="#d" width="400" height="400" transform="matrix(.7237 0 0 .91558 67.95623 -24.10164)"/>
  <use xlink:href="#d" width="400" height="400" transform="matrix(.62921 .04693 -.06147 .82404 131.0799 -21.67824)"/>
  <use xlink:href="#d" width="400" height="400" transform="matrix(.7178 0 0 .80463 133.2252 -13.60595)"/>
  <use xlink:href="#d" width="400" height="400" transform="matrix(.57396 -.056 .0739 .75761 174.8375 2.704613)"/>
  <use xlink:href="#d" width="400" height="400" transform="matrix(.46332 -.14598 .2267 .71953 192.0305 23.61656)"/>
  <use xlink:href="#d" width="400" height="400" transform="matrix(.21233 -.0739 .20762 .5965 263.0116 24.19447)"/>
  <use xlink:href="#d" width="400" height="400" transform="matrix(.52514 .08404 -.13983 .87376 39.03527 -24.78903)"/>
  <use xlink:href="#d" width="400" height="400" transform="matrix(.43287 .07732 -.1475 .82576 34.94922 -21.40698)"/>
  <use xlink:href="#d" width="400" height="400" transform="matrix(.36464 .09087 -.18772 .7533 36.08055 -15.59615)"/>
  <use xlink:href="#d" width="400" height="400" transform="matrix(.28115 .10909 -.28123 .72478 53.8645 -19.21334)"/>
  <path fill="url(#e)" d="M372 207a173 173 0 1 1-346 0 173 173 0 1 1 346 0z" transform="translate(2.77955 -6.289446) scale(1.00865)"/>
  <path fill="none" stroke="#000" stroke-linejoin="round" stroke-width="5.00001971" d="M377.995862 202.500276a174.495758 174.495758 0 1 1-348.991516 0 174.495758 174.495758 0 1 1 348.991516 0z"/>
</svg>